<?xml version="1.0" encoding="UTF-8" standalone="no"?>
<svg
   xmlns:dc="http://purl.org/dc/elements/1.1/"
   xmlns:cc="http://creativecommons.org/ns#"
   xmlns:rdf="http://www.w3.org/1999/02/22-rdf-syntax-ns#"
   xmlns:svg="http://www.w3.org/2000/svg"
   xmlns="http://www.w3.org/2000/svg"
   xmlns:sodipodi="http://sodipodi.sourceforge.net/DTD/sodipodi-0.dtd"
   xmlns:inkscape="http://www.inkscape.org/namespaces/inkscape"
   width="51"
   height="51"
   viewBox="0 0 51 51"
   version="1.1"
   id="svg10"
   sodipodi:docname="qrcode-scanner.svg"
   inkscape:version="0.92.2 2405546, 2018-03-11"
   inkscape:export-filename="/home/arjan/devel/botsi/barcode-scanner/app/images/touch/android-chrome-512x512.png"
   inkscape:export-xdpi="963.76001"
   inkscape:export-ydpi="963.76001">
  <defs
     id="defs4573" />
  <metadata
     id="metadata14">
    <rdf:RDF>
      <cc:Work
         rdf:about="">
        <dc:format>image/svg+xml</dc:format>
        <dc:type
           rdf:resource="http://purl.org/dc/dcmitype/StillImage" />
        <dc:title></dc:title>
      </cc:Work>
    </rdf:RDF>
  </metadata>
  <sodipodi:namedview
     pagecolor="#ffffff"
     bordercolor="#666666"
     borderopacity="1"
     objecttolerance="10"
     gridtolerance="10"
     guidetolerance="10"
     inkscape:pageopacity="0"
     inkscape:pageshadow="2"
     inkscape:window-width="1920"
     inkscape:window-height="1147"
     id="namedview12"
     showgrid="false"
     inkscape:zoom="11.760754"
     inkscape:cx="34.886085"
     inkscape:cy="22.287827"
     inkscape:window-x="0"
     inkscape:window-y="27"
     inkscape:window-maximized="1"
     inkscape:current-layer="Page-1"
     fit-margin-top="0"
     fit-margin-left="0"
     fit-margin-right="0"
     fit-margin-bottom="0" />
  <g
     id="Page-1"
     style="fill:none;fill-rule:evenodd;stroke:none;stroke-width:1"
     transform="translate(-218.5025,53.887375)">
    <path
       sodipodi:nodetypes="ccssscscccscscsccccc"
       id="SQUAD-3"
       d="m 254.02152,-10.834727 c 0,0 -1.3674,0.874627 -5.04565,1.049708 -0.4091,0.01947 -5.84678,0.03029 -6.31435,0.03029 -0.50027,0 -5.99048,-0.01167 -6.47062,-0.03501 -4.74101,-0.230469 -8.50077,-1.598788 -11.27938,-4.104988 -3.06001,-2.760014 -4.67,-6.859973 -4.83,-12.3 -0.04,-1.160006 -0.06,-2.859989 -0.06,-5.1 0,-2.280011 0.02,-3.999994 0.06,-5.16 0.16,-5.320027 1.80998,-9.399986 4.95,-12.24 2.83812,-2.566966 6.55035,-3.97383 11.13676,-4.220623 0.48785,-0.02625 5.9856,-0.03938 6.49324,-0.03938 0.40605,0 5.8057,0.0083 6.19893,0.02482 4.75887,0.200218 8.57919,1.611934 11.46107,4.235184 3.12002,2.840014 4.76,6.919973 4.92,12.24 0.08,2.320012 0.12,4.039994 0.12,5.16 0,1.080005 -0.04,2.779988 -0.12,5.1 -0.16,5.280026 -1.59999,9.239987 -4.32,11.88 1.23854,2.052685 6.85095,10.465361 6.85095,10.465361 0,0 -12.15235,-5.905361 -13.75095,-6.985361 z"
       style="fill:#0084ff;fill-opacity:1"
       inkscape:connector-curvature="0" />
    <g
       style="fill:#ffffff;stroke:none"
       transform="matrix(0.0078808,0,0,-0.00819315,219.47634,-7.351369)"
       id="g20">
      <path
         inkscape:connector-curvature="0"
         d="m 1200,3820 v -720 h 740 740 v 720 720 h -740 -740 z m 1230,0 v -470 l -487,2 -488,3 -3,455 c -1,250 0,461 3,468 3,9 111,12 490,12 h 485 z"
         id="path2"
         style="fill:#ffffff" />
      <path
         inkscape:connector-curvature="0"
         d="m 1800,3820 v -140 h 145 145 v 140 140 h -145 -145 z"
         id="path4"
         style="fill:#ffffff" />
      <path
         inkscape:connector-curvature="0"
         d="m 3130,3820 v -720 h 740 740 v 720 720 h -740 -740 z m 1215,0 v -465 h -480 -480 l -3,455 c -1,250 0,461 3,468 3,10 105,12 482,10 l 478,-3 z"
         id="path6"
         style="fill:#ffffff" />
      <path
         inkscape:connector-curvature="0"
         d="m 3720,3820 v -140 h 150 150 v 140 140 h -150 -150 z"
         id="path8"
         style="fill:#ffffff" />
      <path
         inkscape:connector-curvature="0"
         d="m 1200,1980 v -720 h 740 740 v 720 720 h -740 -740 z m 1230,0 v -470 l -487,2 -488,3 -3,455 c -1,250 0,461 3,468 3,9 111,12 490,12 h 485 z"
         id="path10"
         style="fill:#ffffff" />
      <path
         inkscape:connector-curvature="0"
         d="m 1800,1980 v -140 h 145 145 v 140 140 h -145 -145 z"
         id="path12"
         style="fill:#ffffff" />
      <path
         inkscape:connector-curvature="0"
         d="m 3130,2625 v -75 h 120 120 v 75 75 h -120 -120 z"
         id="path14"
         style="fill:#ffffff" />
      <path
         inkscape:connector-curvature="0"
         d="m 3651,2553 1,-148 -258,-5 -259,-5 -3,-567 -2,-568 h 426 427 l -5,160 -5,161 316,-1 316,-1 3,560 2,561 h -480 -481 z"
         id="path16"
         style="fill:#ffffff" />
      <path
         inkscape:connector-curvature="0"
         d="m 4120,1340 v -80 h 245 245 v 80 80 h -245 -245 z"
         id="path18"
         style="fill:#ffffff" />
    </g>
  </g>
</svg>
